<?xml version="1.0" encoding="utf-8"?>
<!-- Generator: Adobe Illustrator 24.0.0, SVG Export Plug-In . SVG Version: 6.00 Build 0)  -->
<svg version="1.1" id="Layer_1" xmlns="http://www.w3.org/2000/svg" xmlns:xlink="http://www.w3.org/1999/xlink" x="0px" y="0px"
	 viewBox="0 0 50 50" style="enable-background:new 0 0 50 50;" xml:space="preserve">
<style type="text/css">
	.st0{fill:#FFFFFF;}
</style>
<path class="st0" d="M9.91,20.05c-0.53-0.04-1.06-0.02-1.56-0.12c-1.61-0.3-2.7-1.77-2.57-3.4c0.13-1.61,1.48-2.9,3.11-2.93
	c1.56-0.02,3.12-0.01,4.67,0c0.28,0,0.46-0.06,0.63-0.3c1.25-1.77,2.97-2.61,5.14-2.56c0.68,0.02,1.36,0,2.08,0
	c0.1-0.89,0.5-1.57,1.31-1.97c0.09-0.04,0.13-0.24,0.13-0.37c0.01-0.85,0-1.69,0.01-2.54c0.01-1.29,0.93-2.25,2.15-2.24
	c1.2,0.01,2.11,0.96,2.12,2.22c0.01,0.86-0.01,1.72,0.01,2.58c0,0.13,0.09,0.32,0.19,0.38c0.76,0.41,1.15,1.04,1.24,1.94
	c0.82,0,1.65,0,2.47,0c1.37,0.01,2.6,0.44,3.64,1.33c0.4,0.34,0.75,0.76,1.08,1.18c0.19,0.24,0.38,0.36,0.7,0.35
	c1.54-0.02,3.09-0.02,4.63,0c1.6,0.02,2.9,1.22,3.12,2.82c0.2,1.51-0.77,3.04-2.28,3.44c-0.58,0.15-1.2,0.14-1.82,0.21
	c0.03,0.08,0.06,0.19,0.11,0.29c0.95,1.91,1.91,3.82,2.85,5.73c0.12,0.24,0.26,0.35,0.54,0.34c0.64-0.02,1.28-0.01,1.91-0.01
	c0.58,0.01,0.86,0.27,0.83,0.85c-0.03,0.87,0.01,1.77-0.18,2.61c-0.56,2.56-2.85,4.35-5.47,4.37c-1.93,0.01-3.86,0.02-5.79,0
	c-3.11-0.03-5.62-2.54-5.65-5.64c0-0.43,0-0.86,0-1.29c0-0.65,0.25-0.89,0.88-0.9c0.65,0,1.31,0.01,1.96-0.01
	c0.14-0.01,0.34-0.12,0.4-0.24c1.36-2.7,2.71-5.4,4.06-8.11c0.02-0.04,0.02-0.08,0.05-0.18c-0.72,0-1.43-0.01-2.13,0.01
	c-0.41,0.01-0.7-0.13-0.94-0.47c-0.35-0.5-0.73-0.98-1.09-1.46c-0.47-0.62-1.09-0.94-1.88-0.93c-0.65,0.01-1.3,0-1.99,0
	c-0.16,0.82-0.8,0.72-1.46,0.71c0,0.19,0,0.36,0,0.53c0,6.44,0,12.88-0.01,19.32c0,0.4,0.05,0.76,0.32,1.07
	c0.05,0.05,0.09,0.12,0.12,0.18c0.33,0.62,0.74,1,1.53,1.12c1.13,0.17,1.94,0.95,2.38,2.01c0.23,0.57,0.56,0.73,1.16,0.72
	c0.97-0.01,1.97-0.02,2.91,0.18c2.09,0.46,3.63,2.47,3.68,4.6c0.01,0.62-0.25,0.9-0.88,0.9c-8.9,0-17.8,0-26.71,0
	c-0.66,0-0.91-0.27-0.89-0.93c0.07-2.51,2.19-4.66,4.71-4.76c0.79-0.03,1.57,0.01,2.36-0.03c0.16-0.01,0.35-0.15,0.46-0.29
	c0.14-0.17,0.2-0.39,0.31-0.59c0.62-1.16,1.59-1.8,2.89-1.96c0.16-0.02,0.31-0.17,0.46-0.26c0.02-0.01,0.03-0.05,0.05-0.07
	c0.72-0.82,0.9-1.76,0.89-2.86c-0.05-6.1-0.02-12.2-0.02-18.3c0-0.18,0-0.35,0-0.58c-0.59-0.05-1.31,0.16-1.44-0.72
	c-0.77,0-1.51-0.02-2.25,0.01c-0.66,0.03-1.19,0.34-1.59,0.87c-0.39,0.51-0.78,1.01-1.15,1.53c-0.23,0.32-0.51,0.46-0.91,0.45
	c-0.71-0.02-1.41-0.01-2.17-0.01c0.08,0.19,0.14,0.32,0.2,0.45c1.29,2.57,2.58,5.14,3.85,7.72c0.15,0.3,0.31,0.4,0.64,0.39
	c0.64-0.03,1.28-0.02,1.91,0c0.44,0.01,0.76,0.25,0.75,0.66c-0.02,0.92,0.03,1.86-0.16,2.74c-0.56,2.62-2.84,4.41-5.51,4.43
	c-1.9,0.01-3.8,0.01-5.7,0c-3.19-0.02-5.69-2.53-5.71-5.72c0-0.45-0.01-0.89,0-1.34c0.01-0.5,0.28-0.77,0.78-0.77
	c0.68-0.01,1.37,0.01,2.05-0.01c0.14,0,0.34-0.11,0.4-0.23c1.01-1.98,2-3.97,2.99-5.96C9.89,20.17,9.89,20.11,9.91,20.05z
	 M37.68,44.9c-0.01-0.08-0.01-0.12-0.02-0.16c-0.38-1.54-1.8-2.62-3.5-2.62c-6.11-0.01-12.22,0-18.32,0c-0.26,0-0.53,0.04-0.79,0.08
	c-1.34,0.23-2.52,1.42-2.7,2.7C20.78,44.9,29.21,44.9,37.68,44.9z M5.12,27.89c-0.23,2.55,1.27,4.54,3.74,4.85
	c1.23,0.15,2.49,0.07,3.73,0.07c1.07,0,2.15,0.05,3.19-0.1c2.27-0.33,3.8-2.54,3.44-4.82C14.53,27.89,9.84,27.89,5.12,27.89z
	 M30.75,27.89c-0.23,2.84,1.66,4.92,4.45,4.92c1.25,0,2.49,0.01,3.74,0c0.83-0.01,1.67,0.03,2.48-0.1c2.29-0.36,3.8-2.58,3.44-4.82
	C40.17,27.89,35.47,27.89,30.75,27.89z M26.43,37.77c-0.11-0.17-0.16-0.3-0.25-0.4c-0.41-0.48-0.5-1.02-0.5-1.65
	c0.02-6.47,0.01-12.94,0.01-19.41c0-0.17,0-0.35,0-0.53c-0.48,0-0.92,0-1.38,0c0,0.21,0,0.39,0,0.56c0,6.32-0.01,12.64,0.01,18.96
	c0,0.84-0.04,1.62-0.64,2.27c-0.04,0.04-0.05,0.1-0.08,0.18C24.55,37.77,25.46,37.77,26.43,37.77z M16.01,26.41
	c-1.28-2.57-2.53-5.06-3.83-7.65c-1.3,2.6-2.55,5.11-3.82,7.65C10.94,26.41,13.44,26.41,16.01,26.41z M37.82,18.76
	c-1.3,2.6-2.55,5.11-3.81,7.63c2.57,0,5.08,0,7.63,0C40.37,23.84,39.12,21.35,37.82,18.76z M8.62,16.43c1.75,0,3.46-0.08,5.16,0.03
	c1.16,0.07,1.92-0.24,2.54-1.26c0.7-1.16,1.84-1.66,3.21-1.62c0.62,0.02,1.24,0,1.85,0c0-0.49,0-0.93,0-1.36
	c-0.96,0-1.88-0.05-2.79,0.01c-1.56,0.11-2.65,1-3.48,2.27c-0.26,0.4-0.59,0.56-1.08,0.55c-1.63-0.03-3.26-0.01-4.9-0.01
	c-1.1,0-1.9,0.74-1.92,1.74c-0.01,1.01,0.81,1.77,1.93,1.77c0.33,0,0.65,0,0.98,0c0.59,0,0.64-0.04,0.77-0.68c-0.76,0-1.51,0-2.28,0
	C8.62,17.39,8.62,16.94,8.62,16.43z M39.08,17.89c0.08,0.5,0.29,0.74,0.81,0.68c0.35-0.04,0.71,0.02,1.07-0.02
	c0.32-0.04,0.65-0.1,0.93-0.24c0.71-0.37,1.02-1.16,0.83-1.93c-0.2-0.8-0.86-1.33-1.73-1.33c-1.5-0.01-3-0.06-4.49,0.02
	c-0.87,0.04-1.45-0.22-1.91-0.96c-0.53-0.86-1.33-1.43-2.31-1.72c-1.2-0.35-2.43-0.14-3.65-0.19c0,0.49,0,0.93,0,1.38
	c0.69,0,1.34,0,1.99,0c1.23-0.01,2.21,0.48,2.96,1.44c0.28,0.36,0.57,0.72,0.82,1.11c0.16,0.24,0.35,0.31,0.63,0.31
	c1.96-0.01,3.92-0.01,5.87-0.01c0.16,0,0.31,0,0.47,0c0,0.52,0,0.97,0,1.47C40.6,17.89,39.85,17.89,39.08,17.89z M25,14.28
	c0.58,0,1.16-0.01,1.73,0c0.25,0.01,0.38-0.05,0.37-0.34c-0.01-1.02,0-2.05-0.01-3.07c-0.01-0.52-0.29-0.79-0.81-0.8
	c-0.86-0.01-1.72-0.01-2.58,0c-0.52,0.01-0.8,0.28-0.81,0.8c-0.01,1.02,0,2.05-0.01,3.07c0,0.29,0.12,0.35,0.37,0.34
	C23.85,14.27,24.43,14.28,25,14.28z M30.11,40.61c-0.25-0.79-0.98-1.31-1.93-1.32c-2.12-0.02-4.23-0.02-6.35,0
	c-0.95,0.01-1.69,0.55-1.91,1.32C23.3,40.61,26.68,40.61,30.11,40.61z M25.69,8.57c0-0.95,0.01-1.86,0-2.76
	c-0.01-0.41-0.28-0.7-0.64-0.73c-0.33-0.03-0.7,0.23-0.71,0.6c-0.03,0.96-0.01,1.91-0.01,2.89C24.79,8.57,25.22,8.57,25.69,8.57z"/>
</svg>
